# xmcd
#
# Track frame offsets: 
#        182
#        13552
#        26662
#        39120
#        51705
#        59785
#        73245
#        94330
#        109640
#        133100
#        147432
#        160867
#        173667
#        185750
#
# Disc length: 2651 seconds
#
# Revision: 0
# Processed by: cddbd v1.5.1PL0 Copyright (c) Steve Scherf et al.
# Submitted via: ExactAudioCopy v0.95a5
#
DISCID=d00a590e
DTITLE=Various Artist - 28 Blues Ballads Disc 1
DYEAR=1993
DGENRE=Blues
TTITLE0=Elmore James - Dust My Broom
TTITLE1=Muddy Waters - Mannish Boy
TTITLE2=John Lee Hooker - Hobo Blues
TTITLE3=Howlin' Wolf - Spoonful
TTITLE4=Big Joe Willams - Baby Please Don't Go
TTITLE5=Little Walter - Can't Hold Out Much Longer
TTITLE6=Mike Bloomfield - Cherry Red
TTITLE7=Sonny Boy Williams - Cross My Heart
TTITLE8=B.B. King - How Blue You Can Get
TTITLE9=Howlin' Wolf - I Walked From Dallas
TTITLE10=Lightning Hopkins - Mojo Hand
TTITLE11=Muddy Waters - Louisiana Blues
TTITLE12=Elmore James - Mean Mistreatin' Mama
TTITLE13=Sonny Boy Williamson - Sad To Be Alone
EXTD=
EXTT0=
EXTT1=
EXTT2=
EXTT3=
EXTT4=
EXTT5=
EXTT6=
EXTT7=
EXTT8=
EXTT9=
EXTT10=
EXTT11=
EXTT12=
EXTT13=
PLAYORDER=
